# Blender v2.72 (sub 0) OBJ File: 'blenderSphereDecimated.blend'
# www.blender.org
mtllib blenderSphereDecimated.mtl
v 0.091686 0.956695 -0.308620
v 0.011010 1.011468 0.003578
v 0.398137 0.879790 -0.310078
v 0.648625 0.765778 -0.114990
v 0.160933 0.699640 -0.727232
v 0.592342 0.600268 -0.556047
v 0.861660 0.453008 -0.279975
v -0.021042 0.446333 -0.907938
v 0.408729 0.899608 0.244754
v 0.347649 0.703882 0.634501
v 0.638509 0.576132 0.539552
v 0.808845 0.577923 0.158592
v -0.198728 0.958408 0.273525
v -0.309815 0.765772 0.581322
v 0.034811 0.789183 0.637260
v -0.516663 0.468477 0.733230
v -0.152383 0.445328 0.893764
v 0.299569 0.349303 0.907006
v -0.524938 0.860403 -0.105209
v -0.593704 0.739062 0.349145
v -0.854348 0.537647 0.175008
v -0.706542 0.620680 -0.388224
v -0.275095 0.895283 -0.378649
v -0.333163 0.715117 -0.637583
v -0.494844 0.450871 -0.756329
v 0.166106 -0.986392 -0.219751
v 0.445125 -0.895285 -0.144628
v 0.589391 -0.816237 0.189668
v 0.496024 -0.703865 -0.526714
v 0.819262 -0.556005 -0.220340
v 0.770042 -0.349298 -0.565182
v 0.958812 -0.314858 0.144640
v 0.091684 -0.956695 0.308620
v -0.091042 -0.831638 0.565964
v 0.343914 -0.680155 0.673571
v 0.654217 -0.591133 0.491375
v -0.000000 -0.453003 0.906003
v -0.265180 -0.956696 0.182567
v -0.648625 -0.765773 0.114996
v -0.589234 -0.674439 0.484358
v -0.345775 -0.600250 0.735180
v -0.870001 -0.446329 0.260564
v -0.294359 -0.959717 -0.141724
v -0.552578 -0.787707 -0.346880
v -0.332374 -0.482487 -0.834230
v -0.823118 -0.481802 -0.369231
v -0.166406 -0.779446 -0.627453
v 0.148590 -0.739050 -0.672543
v 0.152382 -0.445324 -0.893766
v 0.304762 0.177495 -0.946556
v 0.648163 0.316706 -0.713093
v 0.593710 0.018237 -0.817167
v 0.372482 -0.335412 -0.886958
v 0.994404 0.177504 -0.002653
v 0.884562 0.304044 0.391685
v 0.902537 -0.143344 0.459316
v 0.669514 0.156316 0.739073
v 0.157422 -0.081756 0.994428
v -0.198751 0.140480 0.984615
v -0.304764 -0.177497 0.946554
v -0.761204 0.252735 0.612885
v -0.932695 -0.002421 0.405786
v -0.976067 0.252726 -0.048411
v -0.994404 -0.177503 0.002653
v -0.818111 0.252741 -0.534553
v -0.680105 -0.058361 -0.759863
v -0.304762 0.177506 -0.946554
v -0.496010 -0.156321 -0.865131
v 0.932695 0.002419 -0.405786
v 0.497282 -0.245764 0.852819
v -0.637048 -0.318732 0.721642
v -0.644304 -0.033603 0.782732
v -0.945848 -0.045654 -0.362753
v -0.052715 -0.045656 -1.011650
vt 0.709840 0.894158
vt 0.449157 0.961023
vt 0.600240 0.831338
vt 0.714429 0.739963
vt 0.620062 0.701013
vt 0.529269 0.773694
vt 0.550095 0.647322
vt 0.405200 0.832905
vt 0.469627 0.693956
vt 0.391776 0.686080
vt 0.329422 0.743883
vt 0.149513 0.887537
vt 0.260132 0.782173
vt 0.170723 0.773697
vt 0.224181 0.644758
vt 0.153354 0.655718
vt 0.305801 0.615359
vt 1.050000 0.902721
vt 0.881247 0.981647
vt 0.972064 0.820990
vt 0.006040 0.822345
vt 0.084063 0.758742
vt 0.992515 0.695135
vt 0.917164 0.703592
vt 0.035573 0.672789
vt 0.849803 0.845942
vt 0.824787 0.741105
vt 0.756598 0.644369
vt 0.841229 0.646269
vt 0.550193 0.154054
vt 0.446319 0.210173
vt 0.483562 0.038977
vt 0.702016 0.084092
vt 0.629435 0.256105
vt 0.538993 0.314992
vt 0.681509 0.399713
vt 0.605800 0.384643
vt 0.476413 0.396388
vt 0.290159 0.105840
vt 0.321356 0.268630
vt 0.222690 0.195370
vt 0.249638 0.354156
vt 0.397153 0.302615
vt 0.090157 0.105840
vt 0.150000 0.000000
vt 0.110037 0.271630
vt 0.029269 0.226305
vt 0.179934 0.298994
vt 0.043712 0.358284
vt 1.050000 0.058736
vt 0.918589 0.108869
vt 0.950000 0.000000
vt -0.030694 0.125528
vt 1.008672 0.246062
vt 0.907710 0.229821
vt -0.015623 0.327121
vt 0.933423 0.352442
vt 0.811376 0.346435
vt 0.794224 0.222368
vt 0.715937 0.241252
vt 0.724179 0.355239
vt 0.700189 0.555033
vt 0.631777 0.603786
vt 0.650088 0.504745
vt 0.563621 0.505047
vt 0.500188 0.555037
vt 0.433100 0.593003
vt 0.423004 0.462995
vt 0.367302 0.550085
vt 0.218359 0.544489
vt 0.275321 0.475238
vt 0.200188 0.444967
vt 0.108399 0.580119
vt 0.063622 0.494953
vt 0.007581 0.584222
vt 0.991597 0.580125
vt 0.000188 0.444963
vt 0.908399 0.580122
vt 0.871466 0.488609
vt 0.799813 0.555036
vt 0.832700 0.449916
vt 0.331473 0.420836
vt 0.135072 0.396822
vt 0.139051 0.493272
vt 0.943208 0.485420
vt 0.996198 0.457752
vt 0.757001 0.484307
vn 0.079100 0.943800 -0.321000
vn 0.016200 0.999800 0.009800
vn 0.391200 0.870400 -0.298900
vn 0.168800 0.685000 -0.708700
vn 0.574800 0.601400 -0.554800
vn 0.644700 0.757100 -0.105700
vn 0.852400 0.442500 -0.278500
vn 0.389800 0.890400 0.234800
vn 0.800700 0.580200 0.149200
vn 0.627900 0.565100 0.535100
vn 0.337200 0.692500 0.637700
vn -0.187800 0.947500 0.258600
vn 0.044000 0.778100 0.626500
vn -0.313200 0.746800 0.586700
vn -0.136000 0.458000 0.878400
vn -0.520500 0.455700 0.722100
vn 0.296700 0.338600 0.892900
vn -0.513900 0.853500 -0.086600
vn -0.593100 0.724800 0.350500
vn -0.835800 0.520600 0.174500
vn -0.709700 0.601900 -0.365900
vn -0.259100 0.893900 -0.365800
vn -0.311500 0.708200 -0.633600
vn -0.021900 0.432400 -0.901400
vn -0.495400 0.428500 -0.755500
vn 0.456300 -0.879700 -0.133800
vn 0.572900 -0.798200 0.185900
vn 0.145300 -0.967100 -0.208700
vn 0.493200 -0.694400 -0.524000
vn 0.815000 -0.542800 -0.203000
vn 0.384600 -0.322800 -0.864700
vn 0.754700 -0.340600 -0.560600
vn 0.941800 -0.317400 0.110400
vn 0.121800 -0.950500 0.285800
vn 0.326200 -0.673800 0.663000
vn -0.094900 -0.816700 0.569200
vn 0.010600 -0.455600 0.890100
vn 0.669100 -0.558300 0.490400
vn -0.260200 -0.945600 0.195000
vn -0.571600 -0.672700 0.469600
vn -0.653500 -0.751300 0.092200
vn -0.325500 -0.591500 0.737700
vn -0.863800 -0.439500 0.246100
vn -0.270600 -0.951500 -0.146300
vn -0.544700 -0.759100 -0.356400
vn -0.801500 -0.471400 -0.367900
vn -0.342900 -0.473700 -0.811200
vn -0.171100 -0.776000 -0.607000
vn 0.159100 -0.731900 -0.662500
vn 0.107000 -0.451100 -0.886000
vn 0.293300 0.190600 -0.936800
vn 0.636500 0.321500 -0.701000
vn 0.600500 -0.004700 -0.799600
vn 0.921200 -0.006800 -0.388900
vn 0.987400 0.158100 0.002400
vn 0.878900 0.287000 0.381000
vn 0.874300 -0.142200 0.464100
vn 0.650300 0.151100 0.744400
vn -0.201700 0.143500 0.968900
vn 0.165700 -0.070200 0.983700
vn -0.296600 -0.189100 0.936100
vn -0.755800 0.284500 0.589800
vn -0.921000 -0.004200 0.389500
vn -0.965500 0.253900 -0.057400
vn -0.982300 -0.187100 0.003800
vn -0.811600 0.268400 -0.518800
vn -0.677900 -0.072500 -0.731500
vn -0.311200 0.184600 -0.932200
vn -0.465400 -0.185700 -0.865400
vn 0.497100 -0.239100 0.834100
vn -0.641600 -0.327000 0.693800
vn -0.627300 -0.005600 0.778700
vn -0.932600 -0.045800 -0.358000
vn -0.041300 -0.060900 -0.997300
usemtl Default_Smoothing
s 1
f 1/1/1 2/2/2 3/3/3
f 1/1/1 3/3/3 5/4/4
f 6/5/5 4/6/6 7/7/7
f 5/4/4 3/3/3 6/5/5
f 3/3/3 4/6/6 6/5/5
f 2/2/2 9/8/8 3/3/3
f 3/3/3 9/8/8 4/6/6
f 12/9/9 9/8/8 11/10/10
f 9/8/8 10/11/11 11/10/10
f 4/6/6 9/8/8 12/9/9
f 4/6/6 12/9/9 7/7/7
f 2/2/2 13/12/12 9/8/8
f 9/8/8 13/12/12 15/13/13
f 15/13/13 13/12/12 14/14/14
f 9/8/8 15/13/13 10/11/11
f 17/15/15 14/14/14 16/16/16
f 15/13/13 17/15/15 18/17/17
f 10/11/11 18/17/17 11/10/10
f 15/13/13 14/14/14 17/15/15
f 10/11/11 15/13/13 18/17/17
f 13/18/12 2/19/2 19/20/18
f 13/12/12 19/21/18 20/22/19
f 14/14/14 13/12/12 20/22/19
f 21/23/20 19/20/18 22/24/21
f 14/14/14 20/22/19 16/16/16
f 20/22/19 19/21/18 21/25/20
f 20/22/19 21/25/20 16/16/16
f 2/19/2 23/26/22 19/20/18
f 2/19/2 1/1/1 23/26/22
f 23/26/22 1/1/1 5/4/4
f 23/26/22 5/4/4 24/27/23
f 19/20/18 23/26/22 22/24/21
f 24/27/23 5/4/4 8/28/24
f 22/24/21 23/26/22 24/27/23
f 25/29/25 24/27/23 8/28/24
f 24/27/23 25/29/25 22/24/21
f 27/30/26 28/31/27 26/32/28
f 26/33/28 29/34/29 27/30/26
f 29/34/29 30/35/30 27/30/26
f 30/35/30 28/31/27 27/30/26
f 53/36/31 31/37/32 29/34/29
f 30/35/30 32/38/33 28/31/27
f 29/34/29 31/37/32 30/35/30
f 28/31/27 33/39/34 26/32/28
f 28/31/27 35/40/35 33/39/34
f 35/40/35 34/41/36 33/39/34
f 35/40/35 37/42/37 34/41/36
f 28/31/27 36/43/38 35/40/35
f 32/38/33 36/43/38 28/31/27
f 33/39/34 38/44/39 26/45/28
f 33/39/34 34/41/36 38/44/39
f 40/46/40 38/44/39 34/41/36
f 40/46/40 39/47/41 38/44/39
f 37/42/37 41/48/42 34/41/36
f 40/46/40 42/49/43 39/47/41
f 34/41/36 41/48/42 40/46/40
f 38/50/39 43/51/44 26/52/28
f 39/47/41 43/53/44 38/44/39
f 39/54/41 44/55/45 43/51/44
f 42/49/43 46/56/46 39/47/41
f 39/54/41 46/57/46 44/55/45
f 46/57/46 45/58/47 44/55/45
f 44/55/45 47/59/48 43/51/44
f 43/51/44 47/59/48 26/33/28
f 48/60/49 29/34/29 26/33/28
f 48/60/49 26/33/28 47/59/48
f 45/58/47 47/59/48 44/55/45
f 45/58/47 49/61/50 47/59/48
f 49/61/50 53/36/31 48/60/49
f 47/59/48 49/61/50 48/60/49
f 53/36/31 29/34/29 48/60/49
f 5/4/4 50/62/51 8/28/24
f 5/4/4 6/5/5 51/63/52
f 5/4/4 51/63/52 50/62/51
f 50/62/51 52/64/53 53/36/31
f 51/63/52 52/64/53 50/62/51
f 6/5/5 7/7/7 51/63/52
f 51/63/52 7/7/7 69/65/54
f 52/64/53 69/65/54 31/37/32
f 52/64/53 51/63/52 69/65/54
f 53/36/31 52/64/53 31/37/32
f 7/7/7 12/9/9 54/66/55
f 12/9/9 55/67/56 54/66/55
f 12/9/9 11/10/10 55/67/56
f 54/66/55 55/67/56 56/68/57
f 54/66/55 56/68/57 32/38/33
f 55/67/56 57/69/58 56/68/57
f 55/67/56 11/10/10 57/69/58
f 18/17/17 17/15/15 59/70/59
f 18/17/17 59/70/59 58/71/60
f 17/15/15 16/16/16 59/70/59
f 58/71/60 60/72/61 37/42/37
f 59/70/59 60/72/61 58/71/60
f 16/16/16 21/25/20 61/73/62
f 21/25/20 62/74/63 61/73/62
f 62/74/63 21/25/20 63/75/64
f 21/23/20 22/24/21 63/76/64
f 62/74/63 64/77/65 42/49/43
f 63/75/64 64/77/65 62/74/63
f 22/24/21 25/29/25 65/78/66
f 25/29/25 66/79/67 65/78/66
f 25/29/25 8/28/24 67/80/68
f 66/79/67 67/80/68 68/81/69
f 66/79/67 25/29/25 67/80/68
f 66/79/67 68/81/69 45/58/47
f 31/37/32 69/65/54 30/35/30
f 69/65/54 32/38/33 30/35/30
f 69/65/54 54/66/55 32/38/33
f 69/65/54 7/7/7 54/66/55
f 70/82/70 37/42/37 35/40/35
f 58/71/60 37/42/37 70/82/70
f 36/43/38 70/82/70 35/40/35
f 70/82/70 18/17/17 58/71/60
f 56/68/57 57/69/58 70/82/70
f 56/68/57 70/82/70 36/43/38
f 57/69/58 18/17/17 70/82/70
f 57/69/58 11/10/10 18/17/17
f 32/38/33 56/68/57 36/43/38
f 62/74/63 42/49/43 71/83/71
f 71/83/71 42/49/43 40/46/40
f 71/83/71 40/46/40 41/48/42
f 72/84/72 62/74/63 71/83/71
f 61/73/62 62/74/63 72/84/72
f 37/42/37 60/72/61 41/48/42
f 60/72/61 72/84/72 71/83/71
f 60/72/61 71/83/71 41/48/42
f 59/70/59 72/84/72 60/72/61
f 16/16/16 72/84/72 59/70/59
f 16/16/16 61/73/62 72/84/72
f 66/79/67 45/58/47 46/57/46
f 73/85/73 66/79/67 46/57/46
f 65/78/66 66/79/67 73/85/73
f 42/49/43 64/77/65 46/56/46
f 64/86/65 73/85/73 46/57/46
f 63/76/64 73/85/73 64/86/65
f 22/24/21 65/78/66 63/76/64
f 63/76/64 65/78/66 73/85/73
f 45/58/47 74/87/74 49/61/50
f 74/87/74 53/36/31 49/61/50
f 74/87/74 50/62/51 53/36/31
f 74/87/74 8/28/24 50/62/51
f 68/81/69 67/80/68 74/87/74
f 8/28/24 74/87/74 67/80/68
f 68/81/69 74/87/74 45/58/47
